<svg width="29" height="9" viewBox="0 0 29 9" fill="none" xmlns="http://www.w3.org/2000/svg">
<g clip-path="url(#clip0_149_383)">
<path d="M18.8844 0.013855C16.8273 0.013855 14.9891 1.03298 14.9891 2.91589C14.9891 5.07523 18.2493 5.22437 18.2493 6.30917C18.2493 6.76593 17.7017 7.1748 16.7664 7.1748C15.4389 7.1748 14.4468 6.60348 14.4468 6.60348L14.0223 8.50355C14.0223 8.50355 15.1652 8.98614 16.6826 8.98614C18.9316 8.98614 20.7013 7.91697 20.7013 6.00187C20.7013 3.72013 17.4275 3.57542 17.4275 2.56855C17.4275 2.21075 17.877 1.8187 18.8097 1.8187C19.862 1.8187 20.7205 2.2342 20.7205 2.2342L21.136 0.399062C21.136 0.399062 20.2018 0.013855 18.8844 0.013855ZM0.0643358 0.152356L0.0145264 0.429359C0.0145264 0.429359 0.879933 0.580747 1.65937 0.882734C2.66296 1.22902 2.73445 1.43061 2.90348 2.05675L4.74529 8.84331H7.21426L11.0179 0.152356H8.55459L6.11053 6.06138L5.1132 1.05261C5.02174 0.479365 4.55845 0.152356 3.99136 0.152356H0.0643358ZM12.0084 0.152356L10.076 8.84331H12.425L14.3506 0.152356H12.0084ZM25.1094 0.152356C24.543 0.152356 24.2429 0.442216 24.0227 0.948738L20.5813 8.84331H23.0446L23.5212 7.52755H26.5222L26.812 8.84331H28.9855L27.0894 0.152356H25.1094ZM25.4298 2.50038L26.16 5.76165H24.2038L25.4298 2.50038Z" fill="#1434CB"/>
</g>
<defs>
<clipPath id="clip0_149_383">
<rect width="29" height="9" fill="white"/>
</clipPath>
</defs>
</svg>
