<svg width="24" height="23" viewBox="0 0 24 23" fill="none" xmlns="http://www.w3.org/2000/svg">
<g clip-path="url(#clip0_143_1159)">
<path d="M6.98777 6.70833C4.23256 9.35333 4.23256 13.6467 6.98777 16.2917C9.74298 18.9367 14.2152 18.9367 16.9704 16.2917C19.7256 13.6467 19.7256 9.35333 16.9704 6.70833C14.2152 4.06333 9.74298 4.06333 6.98777 6.70833ZM14.9739 9.58333L12.9774 11.5L14.9739 13.4167L13.9756 14.375L11.9791 12.4583L9.98256 14.375L8.9843 13.4167L10.9808 11.5L8.9843 9.58333L9.98256 8.62499L11.9791 10.5417L13.9756 8.62499L14.9739 9.58333Z" fill="#323232"/>
</g>
<defs>
<clipPath id="clip0_143_1159">
<rect width="16.3367" height="16.3367" fill="white" transform="matrix(0.733265 -0.703935 0.733265 0.703935 0 11.5)"/>
</clipPath>
</defs>
</svg>
