<svg width="29" height="28" viewBox="0 0 29 28" fill="none" xmlns="http://www.w3.org/2000/svg">
<path d="M14.3554 17.3595C19.1602 17.3595 23.0552 13.4734 23.0552 8.67975C23.0552 3.88606 19.1602 0 14.3554 0C9.55071 0 5.6557 3.88606 5.6557 8.67975C5.6557 13.4734 9.55071 17.3595 14.3554 17.3595Z" fill="#00AED6"/>
<path fill-rule="evenodd" clip-rule="evenodd" d="M19.4302 8.42661C19.3577 7.34164 18.4153 6.47367 17.3278 6.546H11.818C11.6005 6.546 11.4555 6.40134 11.4555 6.18434C11.4555 5.96735 11.6005 5.82269 11.818 5.82269H17.4003C17.3641 5.09937 16.8203 4.33989 16.1316 4.2314C14.5004 3.94207 12.8329 3.94207 11.238 4.2314C10.3318 4.37606 9.64304 5.2802 9.49805 6.14818C9.2443 7.84796 9.2443 9.58391 9.49805 11.2837C9.67929 12.2602 10.4768 13.0558 11.4917 13.2005C13.5217 13.4536 15.5516 13.4536 17.5453 13.2005C18.4515 13.092 19.0315 12.2602 19.2128 11.3922C19.394 10.3796 19.4665 9.40308 19.4302 8.42661ZM17.6178 9.62008V9.94557C17.6178 10.1626 17.4728 10.3072 17.2553 10.3072C17.0378 10.3072 16.8928 10.1626 16.8928 9.94557V9.62008C16.7841 9.51158 16.7116 9.36692 16.7116 9.22226C16.7116 8.93293 16.9653 8.67977 17.2553 8.67977C17.5453 8.67977 17.799 8.93293 17.799 9.22226C17.799 9.36692 17.7265 9.51158 17.6178 9.62008Z" fill="white"/>
<path d="M1.23334 26.0394C1.59583 26.5818 2.21206 26.8712 2.86454 26.835C3.62577 26.835 4.1695 26.3648 4.1695 25.7139V25.3522C3.77077 25.75 3.19078 25.967 2.6108 25.9309C1.19709 25.967 0.0371293 24.8821 0.000880366 23.4716C-0.0353685 22.0611 1.0521 20.9038 2.4658 20.8677C2.50205 20.8677 2.5383 20.8677 2.57455 20.8677C3.15453 20.8315 3.73452 21.0485 4.1695 21.4463V20.9762H5.47446V25.6777C5.47446 27.052 4.387 27.9923 2.86454 27.9923C1.84958 28.0646 0.907102 27.6306 0.254622 26.835L1.23334 26.0394ZM4.13326 23.1099C4.13326 22.5675 3.51702 22.0611 2.82829 22.0611C1.95832 22.0611 1.37834 22.6036 1.37834 23.3993C1.34209 24.0864 1.84957 24.7012 2.57455 24.7736C2.64705 24.7736 2.71955 24.7736 2.79205 24.7736C3.55327 24.7736 4.1695 24.3034 4.1695 23.7248V23.1099H4.13326Z" fill="black"/>
<path d="M8.88187 20.8313C10.4768 20.8313 11.6005 21.9524 11.6005 23.3991C11.6005 24.8457 10.4406 25.9668 8.88187 25.9668C7.46816 26.0392 6.2357 24.9542 6.1632 23.5437C6.0907 22.1333 7.14192 20.9036 8.55563 20.8313C8.66438 20.8313 8.77312 20.8313 8.88187 20.8313ZM8.88187 22.0248C8.12064 22.0248 7.50441 22.6396 7.50441 23.3991C7.50441 24.1585 8.12064 24.7734 8.88187 24.7734C9.6431 24.7734 10.2593 24.1585 10.2593 23.3991C10.2956 22.6757 9.7156 22.0609 9.02687 22.0248C8.95437 22.0248 8.91812 22.0248 8.88187 22.0248Z" fill="black"/>
<path d="M12.3618 20.976H13.6667V21.4099H13.703C14.138 21.0121 14.6817 20.8313 15.2617 20.8313C16.6754 20.8675 17.7991 22.0248 17.7628 23.4352C17.7266 24.8095 16.6391 25.8945 15.2617 25.9307C14.7179 25.9307 14.1742 25.7498 13.7392 25.4243H13.703V27.8474H12.3618V20.976ZM15.0079 22.0248C14.2829 22.0248 13.703 22.5311 13.703 23.0736V23.6884C13.703 24.267 14.2829 24.7372 15.0442 24.7372C15.8054 24.7372 16.4216 24.1224 16.3854 23.3629C16.3854 22.6396 15.7692 22.0248 15.0079 22.0248Z" fill="black"/>
<path d="M20.3002 22.9289C21.1702 22.8204 21.4602 22.6757 21.4602 22.4226C21.4602 22.0971 21.134 21.9163 20.5902 21.9163C20.0465 21.8801 19.5028 22.2418 19.394 22.7842L18.1253 22.5311C18.3065 21.5546 19.3215 20.8313 20.5902 20.8313C22.0039 20.8313 22.8739 21.5546 22.8739 22.7119V25.786H21.6052V25.2435C21.2065 25.7137 20.5902 25.9668 19.974 25.8945C18.9228 25.8945 18.1616 25.3158 18.1616 24.4479C18.1616 23.5799 18.7415 23.1459 20.3002 22.9289ZM21.5327 23.4352C21.3877 23.6161 21.134 23.7246 20.4815 23.833C19.684 23.9777 19.394 24.1224 19.394 24.4117C19.394 24.701 19.6478 24.8457 20.1552 24.8457C20.9165 24.8457 21.5327 24.484 21.5327 24.0139V23.4352Z" fill="black"/>
<path d="M25.2664 25.5329L23.0552 20.9761H24.5414L26.0276 24.1225H26.0638L27.5138 20.9761H29L25.6651 27.8475H24.1426L25.2664 25.5329Z" fill="black"/>
</svg>
