<svg width="29" height="9" viewBox="0 0 29 9" fill="none" xmlns="http://www.w3.org/2000/svg">
<g clip-path="url(#clip0_176_628)">
<g clip-path="url(#clip1_176_628)">
<path fill-rule="evenodd" clip-rule="evenodd" d="M7.98035 7.58984C7.08736 8.43501 5.89802 8.89928 4.66607 8.88359C3.42799 8.9022 2.23172 8.43786 1.33295 7.58984C0.910066 7.18153 0.573851 6.69281 0.344249 6.15267C0.114648 5.61253 -0.00366211 5.03198 -0.00366211 4.44546C-0.00366211 3.85894 0.114648 3.27839 0.344249 2.73825C0.573851 2.19812 0.910066 1.7094 1.33295 1.30109C2.23058 0.448028 3.42911 -0.0193536 4.66983 -0.000164041C5.90179 -0.0158584 7.09113 0.448408 7.98412 1.29359C8.40748 1.70163 8.74411 2.19026 8.97401 2.73043C9.20391 3.2706 9.32238 3.85129 9.32238 4.43796C9.32238 5.02463 9.20391 5.60532 8.97401 6.14549C8.74411 6.68566 8.40748 7.17429 7.98412 7.58234L7.98035 7.58984ZM4.66983 1.44734C4.27659 1.44355 3.88666 1.51913 3.52356 1.66952C3.16047 1.8199 2.83173 2.04197 2.5572 2.32233C2.28267 2.60269 2.06802 2.93552 1.92623 3.30075C1.78443 3.66597 1.71842 4.05601 1.73217 4.44734C1.73217 4.83047 1.80796 5.20985 1.95521 5.56382C2.10247 5.91778 2.3183 6.23941 2.59039 6.51032C2.86247 6.78123 3.18549 6.99614 3.54099 7.14275C3.89649 7.28937 4.27751 7.36484 4.6623 7.36484C5.04709 7.36484 5.42811 7.28937 5.78361 7.14275C6.13911 6.99614 6.46213 6.78123 6.73422 6.51032C7.0063 6.23941 7.22214 5.91778 7.36939 5.56382C7.51664 5.20985 7.59243 4.83047 7.59243 4.44734C7.60613 4.05728 7.54057 3.66849 7.3997 3.30428C7.25883 2.94006 7.04554 2.60793 6.77262 2.32778C6.4997 2.04763 6.17277 1.82525 5.81144 1.67395C5.45011 1.52266 5.06181 1.44558 4.66983 1.44734ZM18.9815 1.04609L15.3998 8.99984L15.1965 8.96234C14.172 8.77859 13.9649 8.52359 13.4866 7.48859L10.8013 1.66484H9.79191V0.251086H13.6071V1.66484H12.6957L14.8537 6.48359L16.9478 1.66484H15.8179V0.251086H18.9815V1.04609ZM27.6439 7.58984C26.7393 8.42159 25.5533 8.88349 24.322 8.88349C23.0908 8.88349 21.9047 8.42159 21.0002 7.58984C20.5773 7.18153 20.2411 6.69281 20.0115 6.15267C19.7819 5.61253 19.6636 5.03198 19.6636 4.44546C19.6636 3.85894 19.7819 3.27839 20.0115 2.73825C20.2411 2.19812 20.5773 1.7094 21.0002 1.30109C21.9047 0.469332 23.0908 0.00743609 24.322 0.00743609C25.5533 0.00743609 26.7393 0.469332 27.6439 1.30109C28.0682 1.70859 28.4056 2.19704 28.6361 2.73729C28.8666 3.27753 28.9854 3.85849 28.9854 4.44546C28.9854 5.03243 28.8666 5.61339 28.6361 6.15363C28.4056 6.69388 28.0682 7.18234 27.6439 7.58984ZM24.3484 1.44734C23.955 1.44357 23.5649 1.51914 23.2016 1.66948C22.8383 1.81982 22.5093 2.04183 22.2345 2.32214C21.9597 2.60244 21.7447 2.93523 21.6025 3.30047C21.4602 3.66571 21.3937 4.05583 21.407 4.44734C21.407 4.83047 21.4828 5.20985 21.63 5.56382C21.7773 5.91778 21.9931 6.23941 22.2652 6.51032C22.5373 6.78123 22.8603 6.99614 23.2158 7.14275C23.5713 7.28937 23.9523 7.36484 24.3371 7.36484C24.7219 7.36484 25.1029 7.28937 25.4584 7.14275C25.8139 6.99614 26.1369 6.78123 26.409 6.51032C26.6811 6.23941 26.8969 5.91778 27.0442 5.56382C27.1915 5.20985 27.2672 4.83047 27.2672 4.44734C27.2815 4.05747 27.2164 3.66876 27.0759 3.30456C26.9355 2.94036 26.7225 2.60818 26.4499 2.32798C26.1773 2.04778 25.8506 1.82533 25.4895 1.67399C25.1283 1.52266 24.7402 1.44556 24.3484 1.44734Z" fill="#4B2489"/>
</g>
</g>
<defs>
<clipPath id="clip0_176_628">
<rect width="29" height="9" fill="white"/>
</clipPath>
<clipPath id="clip1_176_628">
<rect width="29" height="9" fill="white"/>
</clipPath>
</defs>
</svg>
