<svg width="29" height="26" viewBox="0 0 29 26" fill="none" xmlns="http://www.w3.org/2000/svg">
<path fill-rule="evenodd" clip-rule="evenodd" d="M2.87596 0.704189H4.71079C4.85051 0.704189 4.95781 0.82815 4.93791 0.966513L4.08578 6.88327C4.05297 7.111 4.22953 7.31491 4.45934 7.31491H7.67812C7.76956 7.31491 7.83962 7.39621 7.82631 7.48666L7.5766 9.18604C7.56369 9.27433 7.48798 9.33988 7.39869 9.33988H3.75915C2.67654 9.33988 1.63831 8.45116 1.79107 7.37831L2.64857 0.903658C2.66364 0.789522 2.76086 0.704189 2.87596 0.704189Z" fill="#E82529"/>
<path fill-rule="evenodd" clip-rule="evenodd" d="M8.9943 3.06509L8.15441 9.09921C8.1411 9.19491 8.21532 9.28037 8.31187 9.28037H10.0874C10.2137 9.28037 10.3207 9.18723 10.3382 9.06206L11.1699 3.12606C11.1876 2.98931 11.0813 2.86804 10.9434 2.86804H9.22048C9.10645 2.86804 9.01004 2.95216 8.9943 3.06509Z" fill="#E82529"/>
<path fill-rule="evenodd" clip-rule="evenodd" d="M12.6567 8.81769C12.1089 8.7979 11.8526 8.96978 11.5293 9.16279C11.6073 8.61876 12.219 4.37918 12.2748 4.11874C12.3338 3.84107 12.3875 3.3778 12.6314 3.14414C12.9173 2.86984 13.3598 2.7129 15.5616 2.70577C17.8091 2.6985 18.2445 4.31753 18.1253 5.36952C18.0236 6.26996 17.6892 8.49466 17.5948 9.11622C17.5804 9.2107 17.4997 9.28029 17.4046 9.28029H15.6685C15.5413 9.28029 15.4436 9.16804 15.4613 9.04206C15.5491 8.4205 15.7846 6.76351 15.8644 6.28234C15.9635 5.68716 16.0429 5.03223 15.8842 4.77367C15.7255 4.51566 15.2495 4.31753 14.3374 4.47636L13.6628 9.25081C13.6628 9.25081 13.2287 8.83842 12.6567 8.81769Z" fill="#E82529"/>
<path fill-rule="evenodd" clip-rule="evenodd" d="M20.0082 0.36143H21.9341C22.0058 0.36143 22.0609 0.424823 22.0511 0.495889L20.8527 9.18528C20.8438 9.24975 20.7887 9.2978 20.7236 9.2978H18.8222C18.7431 9.2978 18.6824 9.22795 18.6932 9.14962L19.8912 0.463586C19.8993 0.405038 19.9492 0.36143 20.0082 0.36143Z" fill="#E82529"/>
<path fill-rule="evenodd" clip-rule="evenodd" d="M21.4984 5.59691L23.6749 3.04568C23.7435 2.96533 23.8438 2.91903 23.9495 2.91903H25.8602C25.9982 2.91903 26.0708 3.08256 25.9785 3.18499L23.7531 5.65708L25.7875 10.0365C25.8621 10.1972 25.7448 10.3811 25.5679 10.3811H23.8409C23.7506 10.3811 23.6688 10.3284 23.6311 10.2465L21.4984 5.59691Z" fill="#E82529"/>
<path fill-rule="evenodd" clip-rule="evenodd" d="M11.5419 1.23409C11.3862 1.89159 10.7947 2.38083 10.1753 2.38083C9.55609 2.38083 9.08115 1.84784 9.237 1.19049C9.39271 0.532993 9.90544 0 10.6403 0C11.2595 0 11.6976 0.576601 11.5419 1.23409Z" fill="#E82529"/>
<path fill-rule="evenodd" clip-rule="evenodd" d="M13.4995 10.8185C13.3438 11.476 12.7522 11.9652 12.1329 11.9652C11.5136 11.9652 11.0387 11.4322 11.1946 10.7749C11.3503 10.1174 11.863 9.58438 12.5979 9.58438C13.2171 9.58438 13.6552 10.161 13.4995 10.8185Z" fill="#E82529"/>
<path fill-rule="evenodd" clip-rule="evenodd" d="M22.8153 18.6755C22.6841 19.3252 22.0864 19.8085 21.4353 19.8081C20.784 19.8079 20.2584 19.2808 20.3896 18.6312C20.5209 17.9816 21.0336 17.455 21.8063 17.4554C22.4574 17.4558 22.9466 18.0258 22.8153 18.6755Z" fill="#E82529"/>
<path fill-rule="evenodd" clip-rule="evenodd" d="M6.42249 15.4396H5.25651C5.21321 15.4396 5.18349 15.396 5.19936 15.3556L6.21406 12.7776C6.23342 12.7285 6.30577 12.739 6.31047 12.7915L6.53853 15.3124C6.54472 15.3807 6.49107 15.4396 6.42249 15.4396ZM9.24714 18.677L7.94602 10.8818C7.88914 10.5411 7.59438 10.2914 7.2492 10.2914H5.94364C5.54548 10.2914 5.18403 10.5241 5.01917 10.8868L1.51423 18.6867C1.4634 18.7999 1.5465 18.9276 1.67035 18.9269L3.49147 18.9163C3.61612 18.9156 3.72826 18.8408 3.77694 18.7261L4.38232 17.3006C4.39873 17.2617 4.43678 17.2366 4.47901 17.2366H6.68295C6.73701 17.2366 6.78233 17.2776 6.78757 17.3315L6.91908 18.6804C6.93428 18.8373 7.06619 18.9571 7.22379 18.9571H9.01007C9.15866 18.9571 9.27162 18.8236 9.24714 18.677Z" fill="#E82529"/>
<path fill-rule="evenodd" clip-rule="evenodd" d="M8.37838 20.089L8.799 21.3896C8.87457 21.6036 8.93159 21.6511 9.07937 21.6199C9.61066 21.5078 10.8944 21.1281 11.5225 20.2776C12.3413 19.1688 12.4536 17.2086 12.5982 16.2123C12.7172 15.3917 12.9778 13.3717 13.066 12.6851C13.0818 12.5616 12.9857 12.4524 12.8612 12.4524H11.2286C11.0843 12.4524 10.9623 12.559 10.943 12.7021C10.8113 13.6718 10.3372 17.159 10.2544 17.6424C10.1581 18.2048 10.1388 19.015 9.30756 19.4986C8.89272 19.7398 8.68 19.7858 8.51581 19.8625C8.4323 19.9015 8.3379 19.9434 8.37838 20.089Z" fill="#E82529"/>
<path fill-rule="evenodd" clip-rule="evenodd" d="M17.3629 17.0863C17.3629 17.0863 16.5116 17.3761 16.1029 17.0692C15.6941 16.7625 15.6601 16.1319 15.8985 15.2287C16.137 14.3253 16.7329 14.172 16.9883 14.1549C17.2438 14.1378 17.724 14.2588 17.724 14.2588L17.3629 17.0863ZM19.7203 12.6858C19.1698 12.548 18.2442 12.2451 16.7563 12.3543C15.3835 12.455 13.8334 13.0905 13.543 15.803C13.2527 18.5155 14.4916 19.0386 16.2724 19.1162C17.5774 19.173 18.6016 18.8136 19.0559 18.6175C19.214 18.5492 19.3241 18.4029 19.3473 18.2321L20.0052 13.0098C20.031 12.8025 19.9275 12.7376 19.7203 12.6858Z" fill="#E82529"/>
<path fill-rule="evenodd" clip-rule="evenodd" d="M20.9901 16.5908L21.4692 11.5899C21.4864 11.4108 21.6366 11.3377 21.8164 11.3377H23.4691C23.6231 11.3377 23.6883 11.4547 23.6458 11.6462L22.637 16.6538C22.6166 16.7507 22.5313 16.82 22.4324 16.82H21.1981C21.0748 16.82 20.9782 16.7137 20.9901 16.5908Z" fill="#E82529"/>
<path fill-rule="evenodd" clip-rule="evenodd" d="M1.64926 25.8121C1.97656 25.9931 2.35886 26.0458 2.72273 25.9595C4.17217 25.6157 7.3798 24.6904 14.165 23.7087C22.6895 22.4753 28.9835 22.4804 28.9835 22.4804L29 22.4703C29 22.4703 23.4214 21.7031 14.2658 22.5981C5.11009 23.4932 0 24.8998 0 24.8998L1.64926 25.8121Z" fill="#E82529"/>
</svg>
