<svg width="10" height="13" viewBox="0 0 10 13" fill="none" xmlns="http://www.w3.org/2000/svg">
<path d="M6.7541 2.55422C7.84436 2.53707 8.63462 2.77535 9.24832 3.0222L9.54917 3.16363L10 0.513414C9.34003 0.265706 8.30549 0 7.01467 0C3.72161 0 1.40053 1.65853 1.38253 4.03532C1.36111 5.79156 3.03592 6.7721 4.30103 7.35752C5.59956 7.9575 6.03498 8.33892 6.02898 8.87462C6.01869 9.69317 4.99358 10.0686 4.03618 10.0686C2.70164 10.0686 1.9928 9.8843 0.898262 9.42832L0.468845 9.23289L0 11.9697C0.779979 12.3117 2.21908 12.6057 3.71304 12.6211C7.21609 12.6211 9.4926 10.9823 9.5166 8.44263C9.53117 7.05324 8.64234 5.99298 6.71639 5.123C5.55071 4.55559 4.83758 4.17846 4.84444 3.6059C4.84444 3.09763 5.44957 2.55422 6.7541 2.55422Z" fill="white"/>
</svg>
