<svg width="20" height="20" viewBox="0 0 20 20" fill="none" xmlns="http://www.w3.org/2000/svg">
<path d="M0.750113 0.750235L2.83009 1.11023L3.79308 12.5831C3.87007 13.5201 4.65307 14.2391 5.59305 14.2361H16.5019C17.3989 14.2381 18.1599 13.5781 18.2869 12.6901L19.2359 6.13217C19.3419 5.39918 18.8329 4.71919 18.1009 4.61319C18.0369 4.60419 3.16408 4.59919 3.16408 4.59919" stroke="#130F26" stroke-opacity="0.4" stroke-width="1.5" stroke-linecap="round" stroke-linejoin="round"/>
<path d="M12.125 8.29506H14.8979" stroke="#130F26" stroke-opacity="0.4" stroke-width="1.5" stroke-linecap="round" stroke-linejoin="round"/>
<path fill-rule="evenodd" clip-rule="evenodd" d="M5.15441 17.7027C5.45541 17.7027 5.6984 17.9467 5.6984 18.2467C5.6984 18.5477 5.45541 18.7917 5.15441 18.7917C4.85341 18.7917 4.61042 18.5477 4.61042 18.2467C4.61042 17.9467 4.85341 17.7027 5.15441 17.7027Z" fill="#130F26" fill-opacity="0.4" stroke="#130F26" stroke-opacity="0.4" stroke-width="1.5" stroke-linecap="round" stroke-linejoin="round"/>
<path fill-rule="evenodd" clip-rule="evenodd" d="M16.4345 17.7027C16.7355 17.7027 16.9795 17.9467 16.9795 18.2467C16.9795 18.5477 16.7355 18.7917 16.4345 18.7917C16.1336 18.7917 15.8906 18.5477 15.8906 18.2467C15.8906 17.9467 16.1336 17.7027 16.4345 17.7027Z" fill="#130F26" fill-opacity="0.4" stroke="#130F26" stroke-opacity="0.4" stroke-width="1.5" stroke-linecap="round" stroke-linejoin="round"/>
</svg>
