<svg width="24" height="19" viewBox="0 0 24 19" fill="none" xmlns="http://www.w3.org/2000/svg">
<path d="M21.0193 4.74235C21.0193 4.95652 21.0193 5.17069 21.0193 5.35427C21.0193 11.6876 16.1852 19 7.37359 19C4.65056 19 2.14171 18.2045 0 16.8583C0.36715 16.8889 0.764895 16.9195 1.13204 16.9195C3.36554 16.9195 5.44605 16.1546 7.09823 14.8696C4.98712 14.839 3.21256 13.4316 2.63124 11.5346C2.9372 11.5958 3.21256 11.6264 3.54911 11.6264C3.97745 11.6264 4.4058 11.5652 4.80354 11.4428C2.60064 11.0145 0.94847 9.08696 0.94847 6.76167C0.94847 6.73108 0.94847 6.73108 0.94847 6.70048C1.59098 7.06763 2.32528 7.2818 3.12077 7.3124C1.83575 6.45572 0.979066 4.98712 0.979066 3.30435C0.979066 2.41707 1.22383 1.59098 1.62158 0.887278C3.97745 3.79388 7.52657 5.69082 11.504 5.90499C11.4122 5.56844 11.3816 5.17069 11.3816 4.80354C11.3816 2.14171 13.5233 0 16.1852 0C17.562 0 18.8164 0.58132 19.6731 1.49919C20.7746 1.28502 21.7842 0.887278 22.7327 0.336554C22.3655 1.4686 21.6006 2.38647 20.6216 2.99839C21.6006 2.87601 22.5185 2.63124 23.3752 2.23349C22.7633 3.21256 21.9678 4.06924 21.0193 4.74235Z" fill="white"/>
</svg>
