<svg width="42" height="42" viewBox="0 0 42 42" fill="none" xmlns="http://www.w3.org/2000/svg">
<g clip-path="url(#clip0_177_1263)">
<path d="M12.25 31.5C10.325 31.5 8.76751 33.075 8.76751 35C8.76751 36.925 10.325 38.5 12.25 38.5C14.175 38.5 15.75 36.925 15.75 35C15.75 33.075 14.175 31.5 12.25 31.5ZM1.75001 3.50002V7.00001H5.25001L11.55 20.2825L9.18751 24.57C8.90751 25.06 8.75001 25.6375 8.75001 26.25C8.75001 28.175 10.325 29.75 12.25 29.75H33.25V26.25H12.985C12.74 26.25 12.5475 26.0575 12.5475 25.8125L12.6 25.6025L14.175 22.75H27.2125C28.525 22.75 29.68 22.0325 30.275 20.9475L36.54 9.59001C36.68 9.34501 36.75 9.04751 36.75 8.75001C36.75 7.78751 35.9625 7.00001 35 7.00001H9.11751L7.47251 3.50002H1.75001ZM29.75 31.5C27.825 31.5 26.2675 33.075 26.2675 35C26.2675 36.925 27.825 38.5 29.75 38.5C31.675 38.5 33.25 36.925 33.25 35C33.25 33.075 31.675 31.5 29.75 31.5Z" fill="white"/>
</g>
<defs>
<clipPath id="clip0_177_1263">
<rect width="41.2" height="41.2" fill="white" transform="scale(1.01942)"/>
</clipPath>
</defs>
</svg>
