<svg width="20" height="20" viewBox="0 0 20 20" fill="none" xmlns="http://www.w3.org/2000/svg">
<path d="M0.750113 0.750113L2.83009 1.11011L3.79308 12.583C3.87007 13.52 4.65307 14.2389 5.59305 14.2359H16.5019C17.3989 14.2379 18.1599 13.578 18.2869 12.69L19.2359 6.13205C19.3419 5.39906 18.8329 4.71906 18.1009 4.61307C18.0369 4.60407 3.16408 4.59907 3.16408 4.59907" stroke="#AAACAE" stroke-width="1.5" stroke-linecap="round" stroke-linejoin="round"/>
<path d="M12.125 8.29491H14.8979" stroke="#130F26" stroke-opacity="0.4" stroke-width="1.5" stroke-linecap="round" stroke-linejoin="round"/>
<path fill-rule="evenodd" clip-rule="evenodd" d="M5.15441 17.7025C5.45541 17.7025 5.6984 17.9465 5.6984 18.2465C5.6984 18.5475 5.45541 18.7915 5.15441 18.7915C4.85341 18.7915 4.61042 18.5475 4.61042 18.2465C4.61042 17.9465 4.85341 17.7025 5.15441 17.7025Z" fill="#AAACAE" stroke="#AAACAE" stroke-width="1.5" stroke-linecap="round" stroke-linejoin="round"/>
<path fill-rule="evenodd" clip-rule="evenodd" d="M16.4345 17.7025C16.7355 17.7025 16.9795 17.9465 16.9795 18.2465C16.9795 18.5475 16.7355 18.7915 16.4345 18.7915C16.1336 18.7915 15.8906 18.5475 15.8906 18.2465C15.8906 17.9465 16.1336 17.7025 16.4345 17.7025Z" fill="#130F26" fill-opacity="0.4" stroke="#130F26" stroke-opacity="0.4" stroke-width="1.5" stroke-linecap="round" stroke-linejoin="round"/>
</svg>
