<svg width="18" height="18" viewBox="0 0 18 18" fill="none" xmlns="http://www.w3.org/2000/svg">
<path d="M4.6275 13.5C4.78245 13.0609 5.0698 12.6806 5.44995 12.4116C5.8301 12.1426 6.28432 11.9982 6.75 11.9982C7.21568 11.9982 7.6699 12.1426 8.05005 12.4116C8.4302 12.6806 8.71755 13.0609 8.8725 13.5H16.5V15H8.8725C8.71755 15.4392 8.4302 15.8194 8.05005 16.0884C7.6699 16.3574 7.21568 16.5018 6.75 16.5018C6.28432 16.5018 5.8301 16.3574 5.44995 16.0884C5.0698 15.8194 4.78245 15.4392 4.6275 15H1.5V13.5H4.6275ZM9.1275 8.25001C9.28245 7.81086 9.5698 7.43058 9.94995 7.1616C10.3301 6.89262 10.7843 6.74817 11.25 6.74817C11.7157 6.74817 12.1699 6.89262 12.5501 7.1616C12.9302 7.43058 13.2175 7.81086 13.3725 8.25001H16.5V9.75001H13.3725C13.2175 10.1892 12.9302 10.5694 12.5501 10.8384C12.1699 11.1074 11.7157 11.2518 11.25 11.2518C10.7843 11.2518 10.3301 11.1074 9.94995 10.8384C9.5698 10.5694 9.28245 10.1892 9.1275 9.75001H1.5V8.25001H9.1275ZM4.6275 3.00001C4.78245 2.56086 5.0698 2.18058 5.44995 1.9116C5.8301 1.64262 6.28432 1.49817 6.75 1.49817C7.21568 1.49817 7.6699 1.64262 8.05005 1.9116C8.4302 2.18058 8.71755 2.56086 8.8725 3.00001H16.5V4.50001H8.8725C8.71755 4.93916 8.4302 5.31943 8.05005 5.58841C7.6699 5.8574 7.21568 6.00184 6.75 6.00184C6.28432 6.00184 5.8301 5.8574 5.44995 5.58841C5.0698 5.31943 4.78245 4.93916 4.6275 4.50001H1.5V3.00001H4.6275Z" fill="#878787"/>
</svg>
